<svg width="102" height="89" viewBox="0 0 102 89" fill="none" xmlns="http://www.w3.org/2000/svg">
<path fill-rule="evenodd" clip-rule="evenodd" d="M50.9903 3.27678C50.8309 2.48002 50.3133 1.90297 49.6804 1.53612C49.053 1.1724 48.2915 0.999996 47.5625 1C46.8361 1 46.093 1.17151 45.5149 1.55059C44.921 1.94002 44.5 2.55501 44.5 3.37485C44.5 3.95385 44.3199 5.50697 43.9668 7.79859C43.6164 10.0724 43.1019 13.0346 42.4467 16.4043C41.1374 23.1379 39.2682 31.4871 37.0268 39.2115C34.5257 45.4295 32.4856 48.6885 27.2934 53.8748H1.5H1V54.3748V86.8748V87.3748H1.5H33.5H33.5947L33.6829 87.3402C39.2946 85.1344 43.0671 83.0513 45.7154 80.3743C48.3753 77.6856 49.8602 74.4399 50.9847 69.9975L50.9995 69.9391L51 69.8787L50.5 69.8748C51 69.8787 51 69.8785 51 69.878L51 69.8758L51.0001 69.8671L51.0003 69.8323L51.0014 69.695L51.0055 69.1592C51.009 68.6898 51.0141 68.0011 51.0205 67.1236C51.0332 65.3686 51.0508 62.8587 51.0703 59.839C51.1094 53.7997 51.1562 45.721 51.1875 37.5642C51.2187 29.4076 51.2344 21.1717 51.2109 14.8182C51.1992 11.6418 51.1777 8.93405 51.1435 6.9414C51.1264 5.9454 51.106 5.1255 51.082 4.51401C51.0588 3.92324 51.0311 3.48079 50.9903 3.27678ZM50.0014 69.6873L50.0005 69.8105C48.9018 74.1279 47.4808 77.1679 45.0045 79.671C42.5185 82.184 38.9285 84.1974 33.4051 86.3748H19V54.875H18V86.3748H2V54.8748H27.5H27.7063L27.8526 54.7294C33.2573 49.354 35.3855 45.9761 37.9639 39.5613L37.9732 39.5382L37.9802 39.5143C40.2356 31.7454 42.114 23.3548 43.4283 16.5952C44.0856 13.2149 44.6024 10.2396 44.9551 7.9509C45.3051 5.68004 45.5 4.04573 45.5 3.37485C45.5 2.9448 45.704 2.62237 46.0632 2.38685C46.4382 2.14098 46.9764 2 47.5625 2C48.146 2 48.7283 2.14006 49.1789 2.40128C49.6242 2.65939 49.9191 3.01976 50.0097 3.47291C50.0314 3.58139 50.0584 3.93188 50.0828 4.55326C50.1064 5.15391 50.1266 5.96534 50.1436 6.95858C50.1777 8.94443 50.1992 11.6468 50.2109 14.8219C50.2344 21.1716 50.2188 29.4044 50.1875 37.5604C50.1563 45.716 50.1094 53.7937 50.0703 59.8325C50.0508 62.8519 50.0332 65.3615 50.0205 67.1163C50.0142 67.9937 50.009 68.6824 50.0055 69.1517L50.0014 69.6873Z" fill="black"/>
<path d="M49.6804 1.53612L49.1789 2.40128L49.1789 2.40128L49.6804 1.53612ZM50.9903 3.27678L50.0097 3.47291L50.0097 3.47292L50.9903 3.27678ZM47.5625 1L47.5625 0L47.5625 1ZM45.5149 1.55059L46.0632 2.38685V2.38685L45.5149 1.55059ZM43.9668 7.79859L42.9784 7.64628V7.64628L43.9668 7.79859ZM42.4467 16.4043L43.4283 16.5952V16.5952L42.4467 16.4043ZM37.0268 39.2115L37.9545 39.5847L37.9732 39.5383L37.9872 39.4902L37.0268 39.2115ZM27.2934 53.8748V54.8748H27.7073L28.0001 54.5824L27.2934 53.8748ZM1 53.8748V52.8748H0V53.8748H1ZM1 87.3748H0V88.3748H1V87.3748ZM33.5947 87.3748V88.3748H33.7842L33.9606 88.3055L33.5947 87.3748ZM33.6829 87.3402L33.3171 86.4095L33.3171 86.4095L33.6829 87.3402ZM45.7154 80.3743L46.4263 81.0776L45.7154 80.3743ZM50.9847 69.9975L51.9541 70.2429V70.2429L50.9847 69.9975ZM50.9995 69.9391L51.9689 70.1844L51.9985 70.0675L51.9995 69.9469L50.9995 69.9391ZM51 69.8787L52 69.8866L52.0078 68.8866L51.0078 68.8788L51 69.8787ZM51 69.878L52 69.8858L52 69.885L51 69.878ZM51 69.8758L50 69.868L50 69.8689L51 69.8758ZM51.0001 69.8671L52 69.8749V69.8749L51.0001 69.8671ZM51.0003 69.8323L52.0003 69.8401V69.84L51.0003 69.8323ZM51.0014 69.695L52.0014 69.7027V69.7026L51.0014 69.695ZM51.0055 69.1592L52.0054 69.1668L52.0055 69.1668L51.0055 69.1592ZM51.0205 67.1236L52.0205 67.1308L51.0205 67.1236ZM51.0703 59.839L50.0703 59.8325L51.0703 59.839ZM51.1875 37.5642L52.1875 37.568L51.1875 37.5642ZM51.2109 14.8182L52.2109 14.8146L51.2109 14.8182ZM51.1435 6.9414L52.1433 6.92422V6.92422L51.1435 6.9414ZM51.082 4.51401L50.0828 4.55325V4.55326L51.082 4.51401ZM50.0005 69.8105L50.9696 70.0571L50.9995 69.9395L51.0005 69.8182L50.0005 69.8105ZM50.0014 69.6873L51.0014 69.695V69.6949L50.0014 69.6873ZM45.0045 79.671L45.7154 80.3743H45.7154L45.0045 79.671ZM33.4051 86.3748V87.3748H33.5951L33.7719 87.3052L33.4051 86.3748ZM19 86.3748H18V87.3748H19V86.3748ZM19 54.875H20V53.875H19V54.875ZM18 54.875V53.875H17V54.875H18ZM18 86.3748V87.3748H19V86.3748H18ZM2 86.3748H1V87.3748H2V86.3748ZM2 54.8748V53.8748H1V54.8748H2ZM27.7063 54.8748V55.8748H28.1189L28.4115 55.5839L27.7063 54.8748ZM27.8526 54.7294L27.1474 54.0203L27.1474 54.0203L27.8526 54.7294ZM37.9639 39.5613L37.0361 39.1882L37.0361 39.1884L37.9639 39.5613ZM37.9732 39.5382L38.901 39.9113L38.9197 39.8649L38.9336 39.817L37.9732 39.5382ZM37.9802 39.5143L37.0198 39.2354L37.0198 39.2355L37.9802 39.5143ZM43.4283 16.5952L42.4467 16.4043V16.4043L43.4283 16.5952ZM44.9551 7.9509L45.9434 8.10322V8.10322L44.9551 7.9509ZM46.0632 2.38685L45.5149 1.55059L45.5149 1.55059L46.0632 2.38685ZM47.5625 2L47.5625 1V1L47.5625 2ZM49.1789 2.40128L49.6804 1.53613L49.6804 1.53612L49.1789 2.40128ZM50.0097 3.47291L50.9903 3.2768L50.9903 3.27678L50.0097 3.47291ZM50.0828 4.55326L51.082 4.51401V4.51401L50.0828 4.55326ZM50.1436 6.95858L49.1438 6.97576V6.97576L50.1436 6.95858ZM50.2109 14.8219L49.2109 14.8256V14.8256L50.2109 14.8219ZM50.1875 37.5604L49.1875 37.5565V37.5565L50.1875 37.5604ZM50.0703 59.8325L51.0703 59.839V59.839L50.0703 59.8325ZM50.0205 67.1163L49.0205 67.1091V67.1091L50.0205 67.1163ZM50.0055 69.1517L51.0055 69.1593L51.0055 69.1592L50.0055 69.1517ZM49.1789 2.40128C49.625 2.65985 49.9192 3.02049 50.0097 3.47291L51.9709 3.08065C51.7426 1.93956 51.0016 1.14609 50.1819 0.670964L49.1789 2.40128ZM47.5625 2C48.1461 2 48.7284 2.1401 49.1789 2.40128L50.1819 0.670966C49.3775 0.204691 48.4369 -5.36442e-06 47.5625 0L47.5625 2ZM46.0632 2.38685C46.4381 2.14106 46.9763 2 47.5625 2L47.5625 0C46.6959 5.30481e-06 45.748 0.201956 44.9666 0.714326L46.0632 2.38685ZM45.5 3.37485C45.5 2.94595 45.7029 2.62309 46.0632 2.38685L44.9666 0.714325C44.139 1.25695 43.5 2.16408 43.5 3.37485H45.5ZM44.9551 7.95091C45.305 5.68026 45.5 4.04579 45.5 3.37485H43.5C43.5 3.86191 43.3348 5.33368 42.9784 7.64628L44.9551 7.95091ZM43.4283 16.5952C44.0856 13.2149 44.6024 10.2396 44.9551 7.9509L42.9784 7.64628C42.6303 9.90511 42.1182 12.8543 41.4651 16.2135L43.4283 16.5952ZM37.9872 39.4902C40.2395 31.7281 42.1153 23.3478 43.4283 16.5952L41.4651 16.2135C40.1595 22.9279 38.2969 31.246 36.0664 38.9328L37.9872 39.4902ZM28.0001 54.5824C33.2907 49.2977 35.4046 45.9242 37.9545 39.5847L36.099 38.8383C33.6467 44.9349 31.6806 48.0792 26.5867 53.1673L28.0001 54.5824ZM1.5 54.8748H27.2934V52.8748H1.5V54.8748ZM1 54.8748H1.5V52.8748H1V54.8748ZM2 54.3748V53.8748H0V54.3748H2ZM2 86.8748V54.3748H0V86.8748H2ZM2 87.3748V86.8748H0V87.3748H2ZM1.5 86.3748H1V88.3748H1.5V86.3748ZM33.5 86.3748H1.5V88.3748H33.5V86.3748ZM33.5947 86.3748H33.5V88.3748H33.5947V86.3748ZM33.3171 86.4095L33.2289 86.4442L33.9606 88.3055L34.0488 88.2709L33.3171 86.4095ZM45.0044 79.671C42.5052 82.1973 38.8904 84.2188 33.3171 86.4095L34.0487 88.2709C39.6988 86.05 43.6289 83.9052 46.4263 81.0776L45.0044 79.671ZM50.0153 69.7521C48.9146 74.1005 47.4919 77.1566 45.0044 79.671L46.4263 81.0776C49.2587 78.2145 50.8058 74.7793 51.9541 70.2429L50.0153 69.7521ZM50.0301 69.6937L50.0153 69.7521L51.9541 70.2429L51.9689 70.1844L50.0301 69.6937ZM50 69.8709L49.9995 69.9312L51.9995 69.9469L52 69.8866L50 69.8709ZM50.4922 70.8748L50.9922 70.8787L51.0078 68.8788L50.5078 68.8749L50.4922 70.8748ZM50 69.8702C50 69.8702 50 69.8682 50.0001 69.8663C50.0001 69.8643 50.0002 69.8584 50.0003 69.8545C50.0005 69.8445 50.001 69.8278 50.0025 69.8073C50.0054 69.7663 50.0125 69.7014 50.0327 69.6242C50.0789 69.4481 50.1734 69.2845 50.3099 69.1543C50.4292 69.0406 50.5493 68.9823 50.6171 68.9542C50.6876 68.925 50.7468 68.9101 50.7793 68.9027C50.8425 68.8884 50.8929 68.8837 50.9072 68.8824C50.928 68.8805 50.9445 68.8796 50.9522 68.8793C50.9679 68.8785 50.9798 68.8784 50.9819 68.8783C50.9841 68.8783 50.9857 68.8783 50.9866 68.8783C50.9876 68.8783 50.9881 68.8783 50.9883 68.8783C50.9884 68.8783 50.9877 68.8783 50.9857 68.8783C50.9837 68.8783 50.9809 68.8783 50.9771 68.8783C50.9694 68.8782 50.9586 68.8782 50.9433 68.8781C50.882 68.8777 50.7581 68.8768 50.5078 68.8749L50.4922 70.8748C50.7419 70.8768 50.868 70.8777 50.9316 70.8781C50.962 70.8782 50.9825 70.8783 50.9961 70.8783C50.9966 70.8783 51.0199 70.8783 51.0458 70.8771C51.054 70.8767 51.0708 70.8758 51.092 70.8739C51.1065 70.8725 51.1571 70.8678 51.2204 70.8535C51.2393 70.8492 51.4779 70.8041 51.6901 70.6018C52.0161 70.2909 51.9999 69.8982 52 69.8858L50 69.8702ZM50 69.8689L50 69.8711L52 69.885L52 69.8828L50 69.8689ZM50.0001 69.8592L50 69.868L52 69.8837L52 69.8749L50.0001 69.8592ZM50.0004 69.8245L50.0001 69.8593L52 69.8749L52.0003 69.8401L50.0004 69.8245ZM50.0014 69.6873L50.0004 69.8246L52.0003 69.84L52.0014 69.7027L50.0014 69.6873ZM50.0055 69.1516L50.0014 69.6874L52.0014 69.7026L52.0054 69.1668L50.0055 69.1516ZM50.0205 67.1163C50.0142 67.9937 50.009 68.6824 50.0055 69.1517L52.0055 69.1668C52.009 68.6973 52.0141 68.0084 52.0205 67.1308L50.0205 67.1163ZM50.0703 59.8325C50.0508 62.8519 50.0332 65.3615 50.0205 67.1163L52.0205 67.1308C52.0332 65.3756 52.0507 62.8654 52.0703 59.8455L50.0703 59.8325ZM50.1875 37.5604C50.1563 45.716 50.1094 53.7937 50.0703 59.8325L52.0703 59.8455C52.1093 53.8056 52.1562 45.7261 52.1875 37.568L50.1875 37.5604ZM50.2109 14.8219C50.2344 21.1716 50.2188 29.4044 50.1875 37.5604L52.1875 37.568C52.2187 29.4108 52.2344 21.1719 52.2109 14.8146L50.2109 14.8219ZM50.1436 6.95858C50.1777 8.94443 50.1992 11.6468 50.2109 14.8219L52.2109 14.8146C52.1992 11.6367 52.1777 8.92367 52.1433 6.92422L50.1436 6.95858ZM50.0828 4.55326C50.1064 5.15391 50.1266 5.96534 50.1436 6.95859L52.1433 6.92422C52.1262 5.92546 52.1057 5.09709 52.0812 4.47476L50.0828 4.55326ZM50.0097 3.47292C50.0315 3.58167 50.0584 3.93304 50.0828 4.55325L52.0812 4.47477C52.0592 3.91344 52.0307 3.3799 51.9709 3.08064L50.0097 3.47292ZM51.0005 69.8182L51.0014 69.695L49.0015 69.6796L49.0005 69.8028L51.0005 69.8182ZM45.7154 80.3743C48.3633 77.6977 49.8468 74.4691 50.9696 70.0571L49.0314 69.5639C47.9568 73.7866 46.5982 76.6381 44.2935 78.9678L45.7154 80.3743ZM33.7719 87.3052C39.3342 85.1124 43.0809 83.0373 45.7154 80.3743L44.2935 78.9678C41.956 81.3306 38.5228 83.2825 33.0384 85.4445L33.7719 87.3052ZM19 87.3748H33.4051V85.3748H19V87.3748ZM18 54.875V86.3748H20V54.875H18ZM18 55.875H19V53.875H18V55.875ZM19 86.3748V54.875H17V86.3748H19ZM2 87.3748H18V85.3748H2V87.3748ZM1 54.8748V86.3748H3V54.8748H1ZM27.5 53.8748H2V55.8748H27.5V53.8748ZM27.7063 53.8748H27.5V55.8748H27.7063V53.8748ZM27.1474 54.0203L27.0011 54.1658L28.4115 55.5839L28.5578 55.4384L27.1474 54.0203ZM37.0361 39.1884C34.5074 45.4795 32.4542 48.7425 27.1474 54.0203L28.5578 55.4384C34.0605 49.9656 36.2637 46.4727 38.8918 39.9343L37.0361 39.1884ZM37.0454 39.1651L37.0361 39.1882L38.8917 39.9344L38.901 39.9113L37.0454 39.1651ZM37.0198 39.2355L37.0129 39.2594L38.9336 39.817L38.9405 39.7931L37.0198 39.2355ZM42.4467 16.4043C41.136 23.1448 39.2644 31.5043 37.0198 39.2354L38.9405 39.7931C41.2069 31.9865 43.0919 23.5647 44.4099 16.7861L42.4467 16.4043ZM43.9668 7.79859C43.6164 10.0724 43.1019 13.0346 42.4467 16.4043L44.4099 16.7861C45.0693 13.3951 45.5884 10.4069 45.9434 8.10322L43.9668 7.79859ZM44.5 3.37485C44.5 3.95391 44.3199 5.50719 43.9668 7.79859L45.9434 8.10322C46.2902 5.8529 46.5 4.13754 46.5 3.37485H44.5ZM45.5149 1.55059C44.9189 1.94137 44.5 2.55717 44.5 3.37485H46.5C46.5 3.34705 46.5032 3.33186 46.5048 3.32573C46.5063 3.31997 46.5078 3.31664 46.5099 3.31317C46.5132 3.30756 46.5342 3.27381 46.6116 3.22312L45.5149 1.55059ZM47.5625 1C46.8358 1 46.0929 1.17162 45.5149 1.55059L46.6115 3.22312C46.7835 3.11035 47.1171 3 47.5625 3L47.5625 1ZM49.6804 1.53612C49.053 1.17244 48.2916 0.999996 47.5625 1L47.5625 3C48.0004 3 48.4036 3.10768 48.6774 3.26644L49.6804 1.53612ZM50.9903 3.27678C50.8312 2.48121 50.3146 1.90371 49.6804 1.53613L48.6774 3.26644C48.9338 3.41506 49.007 3.5583 49.0291 3.66904L50.9903 3.27678ZM51.082 4.51401C51.0589 3.92461 51.0312 3.48112 50.9903 3.2768L49.0291 3.66902C49.0255 3.65087 49.0346 3.70299 49.0477 3.89049C49.0592 4.05569 49.0716 4.28774 49.0836 4.5925L51.082 4.51401ZM51.1435 6.94141C51.1264 5.9454 51.106 5.1255 51.082 4.51401L49.0836 4.5925C49.1067 5.18232 49.1268 5.98528 49.1438 6.97576L51.1435 6.94141ZM51.2109 14.8182C51.1992 11.6418 51.1777 8.93405 51.1435 6.9414L49.1438 6.97576C49.1778 8.95481 49.1992 11.6519 49.2109 14.8256L51.2109 14.8182ZM51.1875 37.5642C51.2188 29.4076 51.2344 21.1717 51.2109 14.8182L49.2109 14.8256C49.2344 21.1714 49.2188 29.4013 49.1875 37.5565L51.1875 37.5642ZM51.0703 59.839C51.1094 53.7997 51.1562 45.721 51.1875 37.5642L49.1875 37.5565C49.1563 45.711 49.1094 53.7877 49.0703 59.826L51.0703 59.839ZM51.0205 67.1236C51.0332 65.3686 51.0508 62.8587 51.0703 59.839L49.0703 59.826C49.0508 62.8451 49.0332 65.3545 49.0205 67.1091L51.0205 67.1236ZM51.0055 69.1592C51.009 68.6898 51.0141 68.0011 51.0205 67.1236L49.0205 67.1091C49.0142 67.9864 49.0091 68.6749 49.0055 69.1442L51.0055 69.1592ZM51.0014 69.6949L51.0055 69.1593L49.0055 69.1441L49.0015 69.6797L51.0014 69.6949Z" fill="black"/>
<path fill-rule="evenodd" clip-rule="evenodd" d="M50.2319 3.27678C50.3912 2.48002 50.9089 1.90297 51.5417 1.53612C52.1692 1.1724 52.9307 0.999996 53.6597 1C54.3861 1 55.1291 1.17151 55.7073 1.55059C56.3012 1.94002 56.7222 2.55501 56.7222 3.37485C56.7222 3.95385 56.9022 5.50697 57.2554 7.79859C57.6058 10.0724 58.1203 13.0346 58.7755 16.4043C60.0848 23.1379 61.954 31.4871 64.1954 39.2115C66.6965 45.4295 68.7365 48.6885 73.9288 53.8748H99.7222H100.222V54.3748V86.8748V87.3748H99.7222H67.7222H67.6274L67.5393 87.3402C61.9276 85.1344 58.1551 83.0513 55.5068 80.3743C52.8469 77.6856 51.362 74.4399 50.2375 69.9975L50.2227 69.9391L50.2222 69.8787L50.7222 69.8748C50.2222 69.8787 50.2222 69.8785 50.2222 69.878L50.2222 69.8758L50.2221 69.8671L50.2218 69.8323L50.2208 69.695L50.2167 69.1592C50.2132 68.6898 50.208 68.0011 50.2017 67.1236C50.189 65.3686 50.1714 62.8587 50.1519 59.839C50.1128 53.7997 50.0659 45.721 50.0347 37.5642C50.0034 29.4076 49.9878 21.1717 50.0112 14.8182C50.023 11.6418 50.0444 8.93405 50.0787 6.9414C50.0958 5.9454 50.1161 5.1255 50.1402 4.51401C50.1634 3.92324 50.1911 3.48079 50.2319 3.27678ZM51.2207 69.6873L51.2217 69.8105C52.3204 74.1279 53.7414 77.1679 56.2177 79.671C58.7037 82.184 62.2937 84.1974 67.817 86.3748H82.2222V54.875H83.2222V86.3748H99.2222V54.8748H73.7222H73.5159L73.3696 54.7294C67.9648 49.354 65.8366 45.9761 63.2582 39.5613L63.2489 39.5382L63.242 39.5143C60.9865 31.7454 59.1082 23.3548 57.7939 16.5952C57.1366 13.2149 56.6198 10.2396 56.2671 7.9509C55.9171 5.68004 55.7222 4.04573 55.7222 3.37485C55.7222 2.9448 55.5181 2.62237 55.1589 2.38685C54.784 2.14098 54.2457 2 53.6597 2C53.0762 2 52.4939 2.14006 52.0432 2.40128C51.598 2.65939 51.3031 3.01976 51.2125 3.47291C51.1908 3.58139 51.1638 3.93188 51.1394 4.55326C51.1158 5.15391 51.0956 5.96534 51.0785 6.95858C51.0444 8.94443 51.0229 11.6468 51.0112 14.8219C50.9878 21.1716 51.0034 29.4044 51.0347 37.5604C51.0659 45.716 51.1128 53.7937 51.1518 59.8325C51.1714 62.8519 51.189 65.3615 51.2016 67.1163C51.208 67.9937 51.2131 68.6824 51.2167 69.1517L51.2207 69.6873Z" fill="black"/>
<path d="M51.5417 1.53612L52.0432 2.40128L52.0432 2.40128L51.5417 1.53612ZM50.2319 3.27678L51.2125 3.47291L51.2125 3.47292L50.2319 3.27678ZM53.6597 1L53.6597 0L53.6597 1ZM55.7073 1.55059L55.1589 2.38685V2.38685L55.7073 1.55059ZM57.2554 7.79859L58.2437 7.64628V7.64628L57.2554 7.79859ZM58.7755 16.4043L57.7939 16.5952V16.5952L58.7755 16.4043ZM64.1954 39.2115L63.2676 39.5847L63.249 39.5383L63.235 39.4902L64.1954 39.2115ZM73.9288 53.8748V54.8748H73.5149L73.2221 54.5824L73.9288 53.8748ZM100.222 53.8748V52.8748H101.222V53.8748H100.222ZM100.222 87.3748H101.222V88.3748H100.222V87.3748ZM67.6274 87.3748V88.3748H67.4379L67.2616 88.3055L67.6274 87.3748ZM67.5393 87.3402L67.9051 86.4095L67.9051 86.4095L67.5393 87.3402ZM55.5068 80.3743L54.7959 81.0776L55.5068 80.3743ZM50.2375 69.9975L49.268 70.2429V70.2429L50.2375 69.9975ZM50.2227 69.9391L49.2532 70.1844L49.2236 70.0675L49.2227 69.9469L50.2227 69.9391ZM50.2222 69.8787L49.2222 69.8866L49.2144 68.8866L50.2144 68.8788L50.2222 69.8787ZM50.2222 69.878L49.2222 69.8858L49.2222 69.885L50.2222 69.878ZM50.2222 69.8758L51.2221 69.868L51.2221 69.8689L50.2222 69.8758ZM50.2221 69.8671L49.2221 69.8749V69.8749L50.2221 69.8671ZM50.2218 69.8323L49.2219 69.8401V69.84L50.2218 69.8323ZM50.2208 69.695L49.2208 69.7027V69.7026L50.2208 69.695ZM50.2167 69.1592L49.2167 69.1668L49.2167 69.1668L50.2167 69.1592ZM50.2017 67.1236L49.2017 67.1308L50.2017 67.1236ZM50.1519 59.839L51.1518 59.8325L50.1519 59.839ZM50.0347 37.5642L49.0347 37.568L50.0347 37.5642ZM50.0112 14.8182L49.0112 14.8146L50.0112 14.8182ZM50.0787 6.9414L49.0788 6.92422V6.92422L50.0787 6.9414ZM50.1402 4.51401L51.1394 4.55325V4.55326L50.1402 4.51401ZM51.2217 69.8105L50.2526 70.0571L50.2226 69.9395L50.2217 69.8182L51.2217 69.8105ZM51.2207 69.6873L50.2208 69.695V69.6949L51.2207 69.6873ZM56.2177 79.671L55.5068 80.3743H55.5068L56.2177 79.671ZM67.817 86.3748V87.3748H67.627L67.4503 87.3052L67.817 86.3748ZM82.2222 86.3748H83.2222V87.3748H82.2222V86.3748ZM82.2222 54.875H81.2222V53.875H82.2222V54.875ZM83.2222 54.875V53.875H84.2222V54.875H83.2222ZM83.2222 86.3748V87.3748H82.2222V86.3748H83.2222ZM99.2222 86.3748H100.222V87.3748H99.2222V86.3748ZM99.2222 54.8748V53.8748H100.222V54.8748H99.2222ZM73.5159 54.8748V55.8748H73.1032L72.8107 55.5839L73.5159 54.8748ZM73.3696 54.7294L74.0748 54.0203L74.0748 54.0203L73.3696 54.7294ZM63.2582 39.5613L64.186 39.1882L64.1861 39.1884L63.2582 39.5613ZM63.2489 39.5382L62.3211 39.9113L62.3025 39.8649L62.2886 39.817L63.2489 39.5382ZM63.242 39.5143L64.2023 39.2354L64.2023 39.2355L63.242 39.5143ZM57.7939 16.5952L58.7755 16.4043V16.4043L57.7939 16.5952ZM56.2671 7.9509L55.2787 8.10322V8.10322L56.2671 7.9509ZM55.1589 2.38685L55.7073 1.55059L55.7073 1.55059L55.1589 2.38685ZM53.6597 2L53.6597 1V1L53.6597 2ZM52.0432 2.40128L51.5417 1.53613L51.5417 1.53612L52.0432 2.40128ZM51.2125 3.47291L50.2319 3.2768L50.2319 3.27678L51.2125 3.47291ZM51.1394 4.55326L50.1402 4.51401V4.51401L51.1394 4.55326ZM51.0785 6.95858L52.0784 6.97576V6.97576L51.0785 6.95858ZM51.0112 14.8219L52.0112 14.8256V14.8256L51.0112 14.8219ZM51.0347 37.5604L52.0347 37.5565V37.5565L51.0347 37.5604ZM51.1518 59.8325L50.1519 59.839V59.839L51.1518 59.8325ZM51.2016 67.1163L52.2016 67.1091V67.1091L51.2016 67.1163ZM51.2167 69.1517L50.2167 69.1593L50.2167 69.1592L51.2167 69.1517ZM52.0432 2.40128C51.5972 2.65985 51.3029 3.02049 51.2125 3.47291L49.2513 3.08065C49.4795 1.93956 50.2206 1.14609 51.0402 0.670964L52.0432 2.40128ZM53.6597 2C53.0761 2 52.4938 2.1401 52.0432 2.40128L51.0402 0.670966C51.8446 0.204691 52.7853 -5.36442e-06 53.6597 0L53.6597 2ZM55.1589 2.38685C54.7841 2.14106 54.2459 2 53.6597 2L53.6597 0C54.5263 5.30481e-06 55.4742 0.201956 56.2556 0.714326L55.1589 2.38685ZM55.7222 3.37485C55.7222 2.94595 55.5192 2.62309 55.1589 2.38685L56.2556 0.714325C57.0832 1.25695 57.7222 2.16408 57.7222 3.37485H55.7222ZM56.2671 7.95091C55.9171 5.68026 55.7222 4.04579 55.7222 3.37485H57.7222C57.7222 3.86191 57.8873 5.33368 58.2437 7.64628L56.2671 7.95091ZM57.7939 16.5952C57.1366 13.2149 56.6198 10.2396 56.2671 7.9509L58.2437 7.64628C58.5918 9.90511 59.1039 12.8543 59.7571 16.2135L57.7939 16.5952ZM63.235 39.4902C60.9826 31.7281 59.1069 23.3478 57.7939 16.5952L59.7571 16.2135C61.0627 22.9279 62.9253 31.246 65.1558 38.9328L63.235 39.4902ZM73.2221 54.5824C67.9315 49.2977 65.8176 45.9242 63.2676 39.5847L65.1232 38.8383C67.5754 44.9349 69.5416 48.0792 74.6355 53.1673L73.2221 54.5824ZM99.7222 54.8748H73.9288V52.8748H99.7222V54.8748ZM100.222 54.8748H99.7222V52.8748H100.222V54.8748ZM99.2222 54.3748V53.8748H101.222V54.3748H99.2222ZM99.2222 86.8748V54.3748H101.222V86.8748H99.2222ZM99.2222 87.3748V86.8748H101.222V87.3748H99.2222ZM99.7222 86.3748H100.222V88.3748H99.7222V86.3748ZM67.7222 86.3748H99.7222V88.3748H67.7222V86.3748ZM67.6274 86.3748H67.7222V88.3748H67.6274V86.3748ZM67.9051 86.4095L67.9933 86.4442L67.2616 88.3055L67.1734 88.2709L67.9051 86.4095ZM56.2177 79.671C58.7169 82.1973 62.3318 84.2188 67.9051 86.4095L67.1734 88.2709C61.5234 86.05 57.5932 83.9052 54.7959 81.0776L56.2177 79.671ZM51.2069 69.7521C52.3076 74.1005 53.7302 77.1566 56.2177 79.671L54.7959 81.0776C51.9635 78.2145 50.4163 74.7793 49.268 70.2429L51.2069 69.7521ZM51.1921 69.6937L51.2069 69.7521L49.268 70.2429L49.2532 70.1844L51.1921 69.6937ZM51.2222 69.8709L51.2226 69.9312L49.2227 69.9469L49.2222 69.8866L51.2222 69.8709ZM50.73 70.8748L50.23 70.8787L50.2144 68.8788L50.7144 68.8749L50.73 70.8748ZM51.2221 69.8702C51.2221 69.8702 51.2221 69.8682 51.2221 69.8663C51.2221 69.8643 51.222 69.8584 51.2219 69.8545C51.2217 69.8445 51.2211 69.8278 51.2197 69.8073C51.2168 69.7663 51.2097 69.7014 51.1894 69.6242C51.1432 69.4481 51.0488 69.2845 50.9123 69.1543C50.793 69.0406 50.6728 68.9823 50.605 68.9542C50.5345 68.925 50.4753 68.9101 50.4429 68.9027C50.3797 68.8884 50.3293 68.8837 50.315 68.8824C50.2941 68.8805 50.2777 68.8796 50.27 68.8793C50.2543 68.8785 50.2424 68.8784 50.2402 68.8783C50.2381 68.8783 50.2364 68.8783 50.2355 68.8783C50.2346 68.8783 50.234 68.8783 50.2339 68.8783C50.2337 68.8783 50.2344 68.8783 50.2365 68.8783C50.2385 68.8783 50.2413 68.8783 50.2451 68.8783C50.2527 68.8782 50.2636 68.8782 50.2788 68.8781C50.3401 68.8777 50.4641 68.8768 50.7144 68.8749L50.73 70.8748C50.4803 70.8768 50.3542 70.8777 50.2905 70.8781C50.2602 70.8782 50.2396 70.8783 50.2261 70.8783C50.2255 70.8783 50.2023 70.8783 50.1763 70.8771C50.1681 70.8767 50.1513 70.8758 50.1302 70.8739C50.1156 70.8725 50.065 70.8678 50.0017 70.8535C49.9829 70.8492 49.7443 70.8041 49.5321 70.6018C49.2061 70.2909 49.2223 69.8982 49.2222 69.8858L51.2221 69.8702ZM51.2221 69.8689L51.2222 69.8711L49.2222 69.885L49.2222 69.8828L51.2221 69.8689ZM51.2221 69.8592L51.2221 69.868L49.2222 69.8837L49.2221 69.8749L51.2221 69.8592ZM51.2218 69.8245L51.2221 69.8593L49.2221 69.8749L49.2219 69.8401L51.2218 69.8245ZM51.2207 69.6873L51.2218 69.8246L49.2219 69.84L49.2208 69.7027L51.2207 69.6873ZM51.2167 69.1516L51.2207 69.6874L49.2208 69.7026L49.2167 69.1668L51.2167 69.1516ZM51.2016 67.1163C51.208 67.9937 51.2131 68.6824 51.2167 69.1517L49.2167 69.1668C49.2132 68.6973 49.208 68.0084 49.2017 67.1308L51.2016 67.1163ZM51.1518 59.8325C51.1714 62.8519 51.189 65.3615 51.2016 67.1163L49.2017 67.1308C49.189 65.3756 49.1714 62.8654 49.1519 59.8455L51.1518 59.8325ZM51.0347 37.5604C51.0659 45.716 51.1128 53.7937 51.1518 59.8325L49.1519 59.8455C49.1128 53.8056 49.0659 45.7261 49.0347 37.568L51.0347 37.5604ZM51.0112 14.8219C50.9878 21.1716 51.0034 29.4044 51.0347 37.5604L49.0347 37.568C49.0034 29.4108 48.9878 21.1719 49.0112 14.8146L51.0112 14.8219ZM51.0785 6.95858C51.0444 8.94443 51.0229 11.6468 51.0112 14.8219L49.0112 14.8146C49.023 11.6367 49.0445 8.92367 49.0788 6.92422L51.0785 6.95858ZM51.1394 4.55326C51.1158 5.15391 51.0956 5.96534 51.0785 6.95859L49.0788 6.92422C49.096 5.92546 49.1165 5.09709 49.1409 4.47476L51.1394 4.55326ZM51.2125 3.47292C51.1907 3.58167 51.1637 3.93304 51.1394 4.55325L49.1409 4.47477C49.163 3.91344 49.1914 3.3799 49.2513 3.08064L51.2125 3.47292ZM50.2217 69.8182L50.2208 69.695L52.2207 69.6796L52.2217 69.8028L50.2217 69.8182ZM55.5068 80.3743C52.8588 77.6977 51.3753 74.4691 50.2526 70.0571L52.1908 69.5639C53.2654 73.7866 54.6239 76.6381 56.9286 78.9678L55.5068 80.3743ZM67.4503 87.3052C61.888 85.1124 58.1412 83.0373 55.5068 80.3743L56.9286 78.9678C59.2662 81.3306 62.6993 83.2825 68.1838 85.4445L67.4503 87.3052ZM82.2222 87.3748H67.817V85.3748H82.2222V87.3748ZM83.2222 54.875V86.3748H81.2222V54.875H83.2222ZM83.2222 55.875H82.2222V53.875H83.2222V55.875ZM82.2222 86.3748V54.875H84.2222V86.3748H82.2222ZM99.2222 87.3748H83.2222V85.3748H99.2222V87.3748ZM100.222 54.8748V86.3748H98.2222V54.8748H100.222ZM73.7222 53.8748H99.2222V55.8748H73.7222V53.8748ZM73.5159 53.8748H73.7222V55.8748H73.5159V53.8748ZM74.0748 54.0203L74.221 54.1658L72.8107 55.5839L72.6644 55.4384L74.0748 54.0203ZM64.1861 39.1884C66.7148 45.4795 68.768 48.7425 74.0748 54.0203L72.6644 55.4384C67.1616 49.9656 64.9585 46.4727 62.3304 39.9343L64.1861 39.1884ZM64.1767 39.1651L64.186 39.1882L62.3304 39.9344L62.3211 39.9113L64.1767 39.1651ZM64.2023 39.2355L64.2093 39.2594L62.2886 39.817L62.2816 39.7931L64.2023 39.2355ZM58.7755 16.4043C60.0861 23.1448 61.9578 31.5043 64.2023 39.2354L62.2816 39.7931C60.0152 31.9865 58.1303 23.5647 56.8122 16.7861L58.7755 16.4043ZM57.2554 7.79859C57.6058 10.0724 58.1203 13.0346 58.7755 16.4043L56.8122 16.7861C56.1529 13.3951 55.6337 10.4069 55.2787 8.10322L57.2554 7.79859ZM56.7222 3.37485C56.7222 3.95391 56.9023 5.50719 57.2554 7.79859L55.2787 8.10322C54.9319 5.8529 54.7222 4.13754 54.7222 3.37485H56.7222ZM55.7073 1.55059C56.3033 1.94137 56.7222 2.55717 56.7222 3.37485H54.7222C54.7222 3.34705 54.719 3.33186 54.7174 3.32573C54.7158 3.31997 54.7143 3.31664 54.7123 3.31317C54.709 3.30756 54.6879 3.27381 54.6106 3.22312L55.7073 1.55059ZM53.6597 1C54.3864 1 55.1293 1.17162 55.7073 1.55059L54.6106 3.22312C54.4386 3.11035 54.1051 3 53.6597 3L53.6597 1ZM51.5417 1.53612C52.1691 1.17244 52.9305 0.999996 53.6597 1L53.6597 3C53.2218 3 52.8186 3.10768 52.5447 3.26644L51.5417 1.53612ZM50.2319 3.27678C50.391 2.48121 50.9076 1.90371 51.5417 1.53613L52.5447 3.26644C52.2883 3.41506 52.2152 3.5583 52.193 3.66904L50.2319 3.27678ZM50.1402 4.51401C50.1633 3.92461 50.191 3.48112 50.2319 3.2768L52.193 3.66902C52.1967 3.65087 52.1876 3.70299 52.1745 3.89049C52.163 4.05569 52.1506 4.28774 52.1386 4.5925L50.1402 4.51401ZM50.0787 6.94141C50.0958 5.9454 50.1161 5.1255 50.1402 4.51401L52.1386 4.5925C52.1155 5.18232 52.0954 5.98528 52.0784 6.97576L50.0787 6.94141ZM50.0112 14.8182C50.023 11.6418 50.0444 8.93405 50.0787 6.9414L52.0784 6.97576C52.0444 8.95481 52.0229 11.6519 52.0112 14.8256L50.0112 14.8182ZM50.0347 37.5642C50.0034 29.4076 49.9878 21.1717 50.0112 14.8182L52.0112 14.8256C51.9878 21.1714 52.0034 29.4013 52.0347 37.5565L50.0347 37.5642ZM50.1519 59.839C50.1128 53.7997 50.0659 45.721 50.0347 37.5642L52.0347 37.5565C52.0659 45.711 52.1128 53.7877 52.1518 59.826L50.1519 59.839ZM50.2017 67.1236C50.189 65.3686 50.1714 62.8587 50.1519 59.839L52.1518 59.826C52.1714 62.8451 52.1889 65.3545 52.2016 67.1091L50.2017 67.1236ZM50.2167 69.1592C50.2131 68.6898 50.208 68.0011 50.2017 67.1236L52.2016 67.1091C52.208 67.9864 52.2131 68.6749 52.2166 69.1442L50.2167 69.1592ZM50.2208 69.6949L50.2167 69.1593L52.2166 69.1441L52.2207 69.6797L50.2208 69.6949Z" fill="black"/>
</svg>
