<svg height="512pt" viewBox="0 0 512.00533 512" width="512pt" xmlns="http://www.w3.org/2000/svg"><path d="m53.339844 405.320312h8.085937l297.917969-297.921874c-2.410156-.339844-4.820312-.746094-7.339844-.746094h-298.664062c-29.417969 0-53.33593775 23.9375-53.33593775 53.335937v192c0 29.394531 23.91796875 53.332031 53.33593775 53.332031zm0 0" fill="#f44336"/><path d="m497.371094 128.753906-92.03125 36.820313v-5.585938c0-14.699219-5.972656-28.035156-15.636719-37.699219l-283.03125 283.03125h245.332031c29.421875 0 53.335938-23.9375 53.335938-53.332031v-5.589843l92.03125 36.820312c3.261718 1.324219 7.019531.894531 9.941406-1.066406 2.945312-1.984375 4.691406-5.289063 4.691406-8.832032v-234.667968c0-3.539063-1.746094-6.847656-4.691406-8.832032-2.945312-1.984374-6.679688-2.410156-9.941406-1.066406zm0 0" fill="#f44336"/><path d="m10.671875 511.988281c-2.730469 0-5.460937-1.046875-7.550781-3.117187-4.160156-4.160156-4.160156-10.921875 0-15.082032l490.664062-490.667968c4.160156-4.160156 10.925782-4.160156 15.085938 0s4.160156 10.925781 0 15.085937l-490.667969 490.664063c-2.070313 2.070312-4.800781 3.117187-7.53125 3.117187zm0 0"/><path d="m74.671875 405.320312h-21.332031c-29.398438 0-53.33593775-23.914062-53.33593775-53.332031v-192c0-29.421875 23.93749975-53.335937 53.33593775-53.335937h298.664062c5.890625 0 10.667969 4.78125 10.667969 10.667968 0 5.886719-4.777344 10.667969-10.667969 10.667969h-298.664062c-17.644532 0-32 14.355469-32 32v192c0 17.640625 14.355468 32 32 32h21.332031c5.886719 0 10.667969 4.777344 10.667969 10.664063 0 5.890625-4.78125 10.667968-10.667969 10.667968zm0 0"/><path d="m352.003906 405.320312h-192c-5.90625 0-10.664062-4.777343-10.664062-10.667968 0-5.886719 4.757812-10.664063 10.664062-10.664063h192c17.644532 0 32-14.359375 32-32v-21.335937c0-3.539063 1.773438-6.847656 4.695313-8.832032 2.964843-1.960937 6.675781-2.386718 9.941406-1.066406l92.03125 36.820313v-203.175781l-92.03125 36.820312c-3.265625 1.324219-6.996094.917969-9.941406-1.066406-2.921875-1.984375-4.695313-5.289063-4.695313-8.832032v-21.332031c0-5.890625 4.78125-10.667969 10.667969-10.667969s10.667969 4.777344 10.667969 10.667969v5.585938l92.03125-36.820313c3.261718-1.320312 6.996094-.9375 9.941406 1.066406 2.921875 1.984376 4.691406 5.292969 4.691406 8.832032v234.667968c0 3.542969-1.769531 6.847657-4.691406 8.832032s-6.65625 2.410156-9.941406 1.066406l-92.03125-36.820312v5.589843c0 29.417969-23.9375 53.332031-53.335938 53.332031zm0 0"/></svg>