<svg width="82" height="82" viewBox="0 0 82 82" fill="none" xmlns="http://www.w3.org/2000/svg">
<circle cx="41" cy="41" r="38.5" stroke="black" stroke-width="5"/>
<path fill-rule="evenodd" clip-rule="evenodd" d="M35.0936 24C34.5174 24 33.921 24.1794 33.4186 24.4254C32.9159 24.6715 32.4073 25.0333 32.0515 25.4906L32.0331 25.5144L32.016 25.5392L28.7529 30.3H21.7975C19.7001 30.3 18 31.9994 18 34.0964V54.4036C18 56.5041 19.7012 58.2 21.7975 58.2H59.6025C61.6999 58.2 63.4 56.5006 63.4 54.4036V34.0964C63.4 31.9959 61.6988 30.3 59.6025 30.3H52.6471L49.384 25.5392L49.367 25.5144L49.3485 25.4906C48.9934 25.0341 48.4866 24.6722 47.9837 24.4256C47.4809 24.1791 46.8846 24 46.3064 24H35.0936ZM30.1046 31.8654L33.6454 26.6995C33.7684 26.5503 33.9972 26.369 34.2981 26.2217C34.6122 26.0678 34.905 26 35.0936 26H46.3064C46.498 26 46.7907 26.0681 47.1032 26.2213C47.4027 26.3682 47.6309 26.5494 47.7545 26.6995L51.2954 31.8654L51.5933 32.3H52.1202H59.6025C60.5963 32.3 61.4 33.1025 61.4 34.0964V54.4036C61.4 55.3955 60.5959 56.2 59.6025 56.2H21.7975C20.8037 56.2 20 55.3975 20 54.4036V34.0964C20 33.1045 20.8041 32.3 21.7975 32.3H29.2798H29.8067L30.1046 31.8654ZM22.8 27.8C22.8 27.5756 22.9764 27.4 23.1987 27.4H26.0013C26.2231 27.4 26.4 27.5753 26.4 27.8V28.2H22.8V27.8ZM23.1987 25.4C21.8649 25.4 20.8 26.478 20.8 27.8V29.2V30.2H21.8H27.4H28.4V29.2V27.8C28.4 26.4675 27.3245 25.4 26.0013 25.4H23.1987ZM40.7 33.1C34.7353 33.1 29.9 37.9353 29.9 43.9C29.9 49.8647 34.7353 54.7 40.7 54.7C46.6647 54.7 51.5 49.8647 51.5 43.9C51.5 37.9353 46.6647 33.1 40.7 33.1ZM31.9 43.9C31.9 39.0399 35.8399 35.1 40.7 35.1C45.5601 35.1 49.5 39.0399 49.5 43.9C49.5 48.7601 45.5601 52.7 40.7 52.7C35.8399 52.7 31.9 48.7601 31.9 43.9ZM34 43.9C34 40.1997 36.9997 37.2 40.7 37.2C44.4003 37.2 47.4 40.1997 47.4 43.9C47.4 47.6003 44.4003 50.6 40.7 50.6C36.9997 50.6 34 47.6003 34 43.9ZM40.7 35.2C35.8951 35.2 32 39.0951 32 43.9C32 48.7049 35.8951 52.6 40.7 52.6C45.5049 52.6 49.4 48.7049 49.4 43.9C49.4 39.0951 45.5049 35.2 40.7 35.2Z" fill="black"/>
<line x1="67.2322" y1="70.7678" x2="11.2322" y2="14.7678" stroke="black" stroke-width="5"/>
</svg>
