<svg width="130" height="50" viewBox="0 0 130 50" fill="none" xmlns="http://www.w3.org/2000/svg">
<path fill-rule="evenodd" clip-rule="evenodd" d="M80 2C89.7884 7.78729 122.416 7.49792 130 2V30.1407C123.739 56.1111 86.3492 57.1239 80 30.1407V2ZM86.8782 23.8471H101.958C101.729 19.5924 99.9249 18.37 94.6383 17.6258C89.7813 18.311 88.1454 19.7336 86.8782 23.8471ZM123.298 23.8471H108.219C109.486 19.7336 111.122 18.311 115.979 17.6258C121.265 18.37 123.069 19.5924 123.298 23.8471ZM91.9929 31.3704C102.546 32.8913 108.254 32.8611 118.095 31.3704C116.631 37.7872 113.245 41.1365 105.309 41.1365C97.3721 41.1365 92.1286 37.5967 91.9929 31.3704Z" fill="black"/>
<path d="M10 11.4286V8.57143H0V20H10V17.1429H40V20H50V8.57143H40V11.4286H10Z" fill="black"/>
<path d="M50 45.7143H0V50H50V45.7143Z" fill="black"/>
<path d="M4.28571 21.4286H1.42857V44.2857H4.28571V21.4286Z" fill="black"/>
<path d="M12.8571 5.71429L25 0L37.1429 5.71429V10H12.8571V5.71429Z" fill="black"/>
<path d="M8.57143 44.2857H5.71429V21.4286H8.57143V44.2857Z" fill="black"/>
<path d="M48.5714 44.2857V21.4286H45.7143V44.2857H48.5714Z" fill="black"/>
<path d="M44.2857 44.2857V21.4286H41.4286V44.2857H44.2857Z" fill="black"/>
<path d="M35.7143 44.2857V18.5714H31.4286V44.2857H35.7143Z" fill="black"/>
<path d="M14.2857 44.2857V18.5714H18.5714V44.2857H14.2857Z" fill="black"/>
<path d="M27.1429 18.5714H22.8571V44.2857H27.1429V18.5714Z" fill="black"/>
</svg>
